# Blender 4.0.1
# www.blender.org
mtllib apple_half.mtl
o Sphere
v 0.000000 0.550127 -0.705580
v 0.000000 0.438755 -0.831470
v 0.000000 0.293647 -0.923880
v 0.000000 0.131064 -0.980785
v 0.000000 -0.043006 -1.000000
v 0.000000 -0.221656 -0.980785
v 0.000000 -0.397403 -0.923880
v 0.000000 -0.562574 -0.831470
v 0.000000 -0.709733 -0.707107
v 0.000000 -0.832093 -0.555570
v 0.000000 -0.923911 -0.382683
v 0.000000 -0.980785 -0.195090
v -0.000000 0.690635 0.147096
v -0.000000 0.660358 0.299528
v -0.000000 0.630118 0.491507
v -0.000000 0.550127 0.705580
v -0.000000 0.438755 0.831470
v -0.000000 0.293647 0.923880
v -0.000000 0.131064 0.980785
v -0.000000 -0.043006 1.000000
v -0.000000 -0.221656 0.980785
v -0.000000 -0.397403 0.923880
v -0.000000 -0.562574 0.831470
v -0.000000 -0.709733 0.707107
v -0.000000 -0.832093 0.555570
v -0.000000 -0.923911 0.382683
v -0.000000 -0.980785 0.195090
v -0.127389 0.690635 0.073548
v -0.259399 0.660358 0.149764
v -0.425658 0.630118 0.245754
v -0.611051 0.550127 0.352790
v -0.720074 0.438755 0.415735
v -0.800103 0.293647 0.461940
v -0.849385 0.131064 0.490393
v -0.866026 -0.043006 0.500000
v -0.849385 -0.221656 0.490393
v -0.800103 -0.397403 0.461940
v -0.720074 -0.562574 0.415735
v -0.612373 -0.709733 0.353553
v -0.481138 -0.832093 0.277785
v -0.331414 -0.923911 0.191342
v -0.168953 -0.980785 0.097545
v 0.000000 -1.000000 0.000000
v -0.127389 0.690635 -0.073548
v -0.259399 0.660358 -0.149764
v -0.425658 0.630118 -0.245754
v -0.611050 0.550127 -0.352790
v -0.720074 0.438755 -0.415735
v -0.800103 0.293647 -0.461940
v -0.849385 0.131064 -0.490393
v -0.866025 -0.043006 -0.500000
v -0.849385 -0.221656 -0.490393
v -0.800103 -0.397403 -0.461940
v -0.720074 -0.562574 -0.415735
v -0.612372 -0.709733 -0.353554
v -0.481138 -0.832093 -0.277785
v -0.331414 -0.923911 -0.191342
v -0.168953 -0.980785 -0.097545
v 0.000000 0.647972 0.000000
v 0.000000 0.690635 -0.147096
v 0.000000 0.660358 -0.299528
v 0.000000 0.630118 -0.491507
vn -0.4785 0.2901 0.8288
vn -0.1652 -0.9438 0.2862
vn -0.4977 0.0952 0.8621
vn 0.1588 0.9482 -0.2750
vn -0.0565 -0.9936 0.0979
vn -0.4978 -0.0927 0.8623
vn -0.1118 0.9747 0.1936
vn -0.4814 -0.2700 0.8339
vn -0.0895 0.9839 0.1550
vn -0.4500 -0.4360 0.7794
vn -0.1981 0.9182 0.3431
vn -0.4035 -0.5906 0.6989
vn -0.3573 0.6995 0.6189
vn -0.3410 -0.7314 0.5906
vn -0.4378 0.4829 0.7583
vn -0.2614 -0.8525 0.4527
vn -0.8999 -0.4360 -0.0000
vn -0.3962 0.9182 -0.0000
vn -0.8070 -0.5906 -0.0000
vn -0.7146 0.6995 -0.0000
vn -0.6819 -0.7314 -0.0000
vn -0.8757 0.4829 -0.0000
vn -0.5228 -0.8525 -0.0000
vn -0.9570 0.2901 -0.0000
vn -0.3304 -0.9438 -0.0000
vn -0.9955 0.0952 -0.0000
vn 0.3176 0.9482 -0.0000
vn -0.1130 -0.9936 -0.0000
vn -0.9957 -0.0927 -0.0000
vn -0.2236 0.9747 -0.0000
vn -0.9629 -0.2700 -0.0000
vn -0.1789 0.9839 -0.0000
vn -0.1652 -0.9438 -0.2862
vn -0.4977 0.0952 -0.8621
vn 0.1588 0.9482 0.2750
vn -0.0565 -0.9936 -0.0979
vn -0.4978 -0.0927 -0.8623
vn -0.1118 0.9747 -0.1936
vn -0.4814 -0.2700 -0.8339
vn -0.0895 0.9839 -0.1550
vn -0.4500 -0.4360 -0.7794
vn -0.1981 0.9182 -0.3431
vn -0.4035 -0.5906 -0.6989
vn -0.3573 0.6995 -0.6189
vn -0.3410 -0.7314 -0.5906
vn -0.4378 0.4829 -0.7583
vn -0.2614 -0.8525 -0.4527
vn -0.4785 0.2901 -0.8288
vn 1.0000 -0.0000 -0.0000
vt 0.239771 0.003641
vt 0.289250 0.222837
vt 0.190609 0.016904
vt 0.007563 0.405729
vt 0.102548 0.382838
vt 0.067402 0.424600
vt 0.143383 0.038230
vt 0.263523 0.238562
vt 0.512753 0.099357
vt 0.552443 0.131276
vt 0.504169 0.147514
vt 0.021034 0.467321
vt 0.101179 0.070741
vt 0.237558 0.255346
vt 0.459005 0.159865
vt 0.468924 0.067450
vt 0.211479 0.274315
vt 0.064862 0.111879
vt 0.413933 0.169352
vt 0.414009 0.031619
vt 0.033820 0.159539
vt 0.185731 0.295985
vt 0.342249 0.006740
vt 0.371210 0.185494
vt 0.159014 0.320596
vt 0.013435 0.215252
vt 0.343089 0.196740
vt 0.291267 -0.000000
vt 0.131800 0.348495
vt -0.000000 0.275134
vt 0.315771 0.209196
vt 0.000087 0.339079
vt 0.299120 0.408135
vt 0.268420 0.423670
vt 0.474027 0.262438
vt 0.445756 0.296366
vt 0.234719 0.438679
vt 0.423670 0.318190
vt 0.196369 0.453262
vt 0.400924 0.338472
vt 0.152763 0.467666
vt 0.377759 0.357025
vt 0.096892 0.483700
vt 0.353660 0.375234
vt 0.555246 0.145320
vt 0.529574 0.189531
vt 0.030635 0.479854
vt 0.327408 0.392011
vt 0.504573 0.227688
vt 0.089252 0.549766
vt 0.493997 0.563129
vt 0.565458 0.152714
vt 0.577140 0.202781
vt 0.035488 0.510074
vt 0.448537 0.592010
vt 0.589586 0.253442
vt 0.396159 0.612570
vt 0.595636 0.317119
vt 0.338223 0.623453
vt 0.595054 0.389623
vt 0.276417 0.623453
vt 0.583808 0.439100
vt 0.213650 0.608840
vt 0.562690 0.486347
vt 0.150435 0.585832
vt 0.533052 0.528524
vt 0.878760 0.463984
vt 0.604323 0.304875
vt 0.762221 0.008996
vt 0.925803 0.026590
vt 0.957800 0.052159
vt 0.980958 0.084795
vt 0.994443 0.137506
vt 0.996714 0.183720
vt 1.000000 0.220574
vt 0.986156 0.254308
vt 0.992510 0.290214
vt 0.981462 0.325527
vt 0.969416 0.370201
vt 0.945030 0.418839
vt 0.915462 0.445803
vt 0.838825 0.473315
vt 0.797131 0.473432
vt 0.755330 0.464335
vt 0.715177 0.446390
vt 0.678431 0.420310
vt 0.646763 0.387124
vt 0.621656 0.348138
vt 0.595636 0.259021
vt 0.596055 0.212351
vt 0.605570 0.166659
vt 0.623809 0.123701
vt 0.649946 0.085113
vt 0.682769 0.052358
vt 0.720770 0.026666
vt 0.805272 -0.000000
vt 0.848050 -0.000000
vt 0.888766 0.008980
s 0
usemtl Material.001
f 18/1/1 34/2/1 19/3/1
f 27/4/2 41/5/2 42/6/2
f 20/7/3 34/2/3 35/8/3
f 13/9/4 59/10/4 28/11/4
f 43/12/5 27/4/5 42/6/5
f 21/13/6 35/8/6 36/14/6
f 13/9/7 29/15/7 14/16/7
f 21/13/8 37/17/8 22/18/8
f 14/16/9 30/19/9 15/20/9
f 23/21/10 37/17/10 38/22/10
f 16/23/11 30/19/11 31/24/11
f 23/21/12 39/25/12 24/26/12
f 16/23/13 32/27/13 17/28/13
f 24/26/14 40/29/14 25/30/14
f 17/28/15 33/31/15 18/1/15
f 25/30/16 41/5/16 26/32/16
f 38/22/17 53/33/17 54/34/17
f 31/24/18 46/35/18 47/36/18
f 38/22/19 55/37/19 39/25/19
f 31/24/20 48/38/20 32/27/20
f 39/25/21 56/39/21 40/29/21
f 32/27/22 49/40/22 33/31/22
f 40/29/23 57/41/23 41/5/23
f 33/31/24 50/42/24 34/2/24
f 41/5/25 58/43/25 42/6/25
f 34/2/26 51/44/26 35/8/26
f 28/11/27 59/45/27 44/46/27
f 43/47/28 42/6/28 58/43/28
f 35/8/29 52/48/29 36/14/29
f 28/11/30 45/49/30 29/15/30
f 37/17/31 52/48/31 53/33/31
f 30/19/32 45/49/32 46/35/32
f 57/41/33 12/50/33 58/43/33
f 50/42/34 5/51/34 51/44/34
f 44/46/35 59/52/35 60/53/35
f 43/54/36 58/43/36 12/50/36
f 51/44/37 6/55/37 52/48/37
f 44/46/38 61/56/38 45/49/38
f 52/48/39 7/57/39 53/33/39
f 45/49/40 62/58/40 46/35/40
f 53/33/41 8/59/41 54/34/41
f 46/35/42 1/60/42 47/36/42
f 55/37/43 8/59/43 9/61/43
f 47/36/44 2/62/44 48/38/44
f 55/37/45 10/63/45 56/39/45
f 48/38/46 3/64/46 49/40/46
f 56/39/47 11/65/47 57/41/47
f 49/40/48 4/66/48 50/42/48
f 18/67/49 26/68/49 7/69/49
f 18/1/1 33/31/1 34/2/1
f 27/4/2 26/32/2 41/5/2
f 20/7/3 19/3/3 34/2/3
f 21/13/6 20/7/6 35/8/6
f 13/9/7 28/11/7 29/15/7
f 21/13/8 36/14/8 37/17/8
f 14/16/9 29/15/9 30/19/9
f 23/21/10 22/18/10 37/17/10
f 16/23/11 15/20/11 30/19/11
f 23/21/12 38/22/12 39/25/12
f 16/23/13 31/24/13 32/27/13
f 24/26/14 39/25/14 40/29/14
f 17/28/15 32/27/15 33/31/15
f 25/30/16 40/29/16 41/5/16
f 38/22/17 37/17/17 53/33/17
f 31/24/18 30/19/18 46/35/18
f 38/22/19 54/34/19 55/37/19
f 31/24/20 47/36/20 48/38/20
f 39/25/21 55/37/21 56/39/21
f 32/27/22 48/38/22 49/40/22
f 40/29/23 56/39/23 57/41/23
f 33/31/24 49/40/24 50/42/24
f 41/5/25 57/41/25 58/43/25
f 34/2/26 50/42/26 51/44/26
f 35/8/29 51/44/29 52/48/29
f 28/11/30 44/46/30 45/49/30
f 37/17/31 36/14/31 52/48/31
f 30/19/32 29/15/32 45/49/32
f 57/41/33 11/65/33 12/50/33
f 50/42/34 4/66/34 5/51/34
f 51/44/37 5/51/37 6/55/37
f 44/46/38 60/53/38 61/56/38
f 52/48/39 6/55/39 7/57/39
f 45/49/40 61/56/40 62/58/40
f 53/33/41 7/57/41 8/59/41
f 46/35/42 62/58/42 1/60/42
f 55/37/43 54/34/43 8/59/43
f 47/36/44 1/60/44 2/62/44
f 55/37/45 9/61/45 10/63/45
f 48/38/46 2/62/46 3/64/46
f 56/39/47 10/63/47 11/65/47
f 49/40/48 3/64/48 4/66/48
f 3/70/49 2/71/49 1/72/49
f 1/72/49 62/73/49 61/74/49
f 61/74/49 60/75/49 59/76/49
f 59/76/49 13/77/49 14/78/49
f 14/78/49 15/79/49 16/80/49
f 16/80/49 17/81/49 18/67/49
f 18/67/49 19/82/49 20/83/49
f 20/83/49 21/84/49 22/85/49
f 22/85/49 23/86/49 24/87/49
f 24/87/49 25/88/49 26/68/49
f 26/68/49 27/89/49 43/90/49
f 43/90/49 12/91/49 11/92/49
f 11/92/49 10/93/49 9/94/49
f 9/94/49 8/95/49 7/69/49
f 7/69/49 6/96/49 5/97/49
f 5/97/49 4/98/49 3/70/49
f 3/70/49 1/72/49 61/74/49
f 59/76/49 14/78/49 16/80/49
f 3/70/49 61/74/49 59/76/49
f 7/69/49 5/97/49 3/70/49
f 11/92/49 9/94/49 7/69/49
f 26/68/49 43/90/49 11/92/49
f 22/85/49 24/87/49 26/68/49
f 18/67/49 20/83/49 22/85/49
f 59/76/49 16/80/49 18/67/49
f 7/69/49 3/70/49 59/76/49
f 26/68/49 11/92/49 7/69/49
f 18/67/49 22/85/49 26/68/49
f 7/69/49 59/76/49 18/67/49
