# Blender 4.0.1
# www.blender.org
mtllib apple.mtl
o Sphere
v 0.000000 0.550127 -0.705580
v 0.000000 0.438755 -0.831470
v 0.000000 0.293647 -0.923880
v 0.000000 0.131064 -0.980785
v 0.000000 -0.043006 -1.000000
v 0.000000 -0.221656 -0.980785
v 0.000000 -0.397403 -0.923880
v 0.000000 -0.562574 -0.831470
v 0.000000 -0.709733 -0.707107
v 0.000000 -0.832093 -0.555570
v 0.000000 -0.923911 -0.382683
v 0.000000 -0.980785 -0.195090
v 0.127389 0.690635 -0.073548
v 0.259399 0.660358 -0.149764
v 0.425658 0.630118 -0.245754
v 0.611051 0.550127 -0.352790
v 0.720074 0.438755 -0.415735
v 0.800103 0.293647 -0.461940
v 0.849385 0.131064 -0.490393
v 0.866025 -0.043006 -0.500000
v 0.849385 -0.221656 -0.490393
v 0.800103 -0.397403 -0.461940
v 0.720074 -0.562574 -0.415735
v 0.612372 -0.709733 -0.353553
v 0.481138 -0.832093 -0.277785
v 0.331414 -0.923911 -0.191342
v 0.168953 -0.980785 -0.097545
v 0.127389 0.690635 0.073548
v 0.259399 0.660358 0.149764
v 0.425658 0.630118 0.245754
v 0.611051 0.550127 0.352790
v 0.720074 0.438755 0.415735
v 0.800103 0.293647 0.461940
v 0.849385 0.131064 0.490393
v 0.866025 -0.043006 0.500000
v 0.849385 -0.221656 0.490393
v 0.800103 -0.397403 0.461940
v 0.720074 -0.562574 0.415735
v 0.612372 -0.709733 0.353553
v 0.481138 -0.832093 0.277785
v 0.331414 -0.923911 0.191342
v 0.168953 -0.980785 0.097545
v -0.000000 0.690635 0.147096
v -0.000000 0.660358 0.299528
v -0.000000 0.630118 0.491507
v -0.000000 0.550127 0.705580
v -0.000000 0.438755 0.831470
v -0.000000 0.293647 0.923880
v -0.000000 0.131064 0.980785
v -0.000000 -0.043006 1.000000
v -0.000000 -0.221656 0.980785
v -0.000000 -0.397403 0.923880
v -0.000000 -0.562574 0.831470
v -0.000000 -0.709733 0.707107
v -0.000000 -0.832093 0.555570
v -0.000000 -0.923911 0.382683
v -0.000000 -0.980785 0.195090
v -0.127389 0.690635 0.073548
v -0.259399 0.660358 0.149764
v -0.425658 0.630118 0.245754
v -0.611051 0.550127 0.352790
v -0.720074 0.438755 0.415735
v -0.800103 0.293647 0.461940
v -0.849385 0.131064 0.490393
v -0.866026 -0.043006 0.500000
v -0.849385 -0.221656 0.490393
v -0.800103 -0.397403 0.461940
v -0.720074 -0.562574 0.415735
v -0.612373 -0.709733 0.353553
v -0.481138 -0.832093 0.277785
v -0.331414 -0.923911 0.191342
v -0.168953 -0.980785 0.097545
v 0.000000 -1.000000 0.000000
v -0.127389 0.690635 -0.073548
v -0.259399 0.660358 -0.149764
v -0.425658 0.630118 -0.245754
v -0.611050 0.550127 -0.352790
v -0.720074 0.438755 -0.415735
v -0.800103 0.293647 -0.461940
v -0.849385 0.131064 -0.490393
v -0.866025 -0.043006 -0.500000
v -0.849385 -0.221656 -0.490393
v -0.800103 -0.397403 -0.461940
v -0.720074 -0.562574 -0.415735
v -0.612372 -0.709733 -0.353554
v -0.481138 -0.832093 -0.277785
v -0.331414 -0.923911 -0.191342
v -0.168953 -0.980785 -0.097545
v 0.000000 0.647972 0.000000
v 0.000000 0.690635 -0.147096
v 0.000000 0.660358 -0.299528
v 0.000000 0.630118 -0.491507
v 0.075447 0.672254 -0.043559
v 0.102514 0.872055 0.000000
v 0.177961 0.895538 -0.043559
vn 0.1652 -0.9438 -0.2862
vn 0.4977 0.0952 -0.8621
vn -0.1668 0.9427 0.2889
vn 0.0565 -0.9936 -0.0979
vn 0.4978 -0.0927 -0.8623
vn 0.1118 0.9747 -0.1936
vn 0.4814 -0.2700 -0.8339
vn 0.0895 0.9839 -0.1550
vn 0.4500 -0.4360 -0.7794
vn 0.1981 0.9182 -0.3431
vn 0.4035 -0.5906 -0.6989
vn 0.3573 0.6995 -0.6189
vn 0.3410 -0.7314 -0.5906
vn 0.4378 0.4829 -0.7583
vn 0.2614 -0.8525 -0.4527
vn 0.4785 0.2901 -0.8288
vn 0.5228 -0.8525 -0.0000
vn 0.9570 0.2901 -0.0000
vn 0.3304 -0.9438 -0.0000
vn 0.9955 0.0952 -0.0000
vn -0.3336 0.9427 -0.0000
vn 0.1130 -0.9936 -0.0000
vn 0.9957 -0.0927 -0.0000
vn 0.2236 0.9747 -0.0000
vn 0.9629 -0.2700 -0.0000
vn 0.1789 0.9839 -0.0000
vn 0.8999 -0.4360 -0.0000
vn 0.3962 0.9182 -0.0000
vn 0.8070 -0.5906 -0.0000
vn 0.7146 0.6995 -0.0000
vn 0.6819 -0.7314 -0.0000
vn 0.8757 0.4829 -0.0000
vn 0.0895 0.9839 0.1550
vn 0.4500 -0.4360 0.7794
vn 0.1981 0.9182 0.3431
vn 0.4035 -0.5906 0.6989
vn 0.3573 0.6995 0.6189
vn 0.3410 -0.7314 0.5906
vn 0.4378 0.4829 0.7583
vn 0.2614 -0.8525 0.4527
vn 0.4785 0.2901 0.8288
vn 0.1652 -0.9438 0.2862
vn 0.4977 0.0952 0.8621
vn -0.1588 0.9482 -0.2750
vn 0.0565 -0.9936 0.0979
vn 0.4978 -0.0927 0.8623
vn 0.1118 0.9747 0.1936
vn 0.4814 -0.2700 0.8339
vn -0.4785 0.2901 0.8288
vn -0.1652 -0.9438 0.2862
vn -0.4977 0.0952 0.8621
vn 0.1588 0.9482 -0.2750
vn -0.0565 -0.9936 0.0979
vn -0.4978 -0.0927 0.8623
vn -0.1118 0.9747 0.1936
vn -0.4814 -0.2700 0.8339
vn -0.0895 0.9839 0.1550
vn -0.4500 -0.4360 0.7794
vn -0.1981 0.9182 0.3431
vn -0.4035 -0.5906 0.6989
vn -0.3573 0.6995 0.6189
vn -0.3410 -0.7314 0.5906
vn -0.4378 0.4829 0.7583
vn -0.2614 -0.8525 0.4527
vn -0.8999 -0.4360 -0.0000
vn -0.3962 0.9182 -0.0000
vn -0.8070 -0.5906 -0.0000
vn -0.7146 0.6995 -0.0000
vn -0.6819 -0.7314 -0.0000
vn -0.8757 0.4829 -0.0000
vn -0.5228 -0.8525 -0.0000
vn -0.9570 0.2901 -0.0000
vn -0.3304 -0.9438 -0.0000
vn -0.9955 0.0952 -0.0000
vn 0.3176 0.9482 -0.0000
vn -0.1130 -0.9936 -0.0000
vn -0.9957 -0.0927 -0.0000
vn -0.2236 0.9747 -0.0000
vn -0.9629 -0.2700 -0.0000
vn -0.1789 0.9839 -0.0000
vn -0.1652 -0.9438 -0.2862
vn -0.4977 0.0952 -0.8621
vn 0.1588 0.9482 0.2750
vn -0.0565 -0.9936 -0.0979
vn -0.4978 -0.0927 -0.8623
vn -0.1118 0.9747 -0.1936
vn -0.4814 -0.2700 -0.8339
vn -0.0895 0.9839 -0.1550
vn -0.4500 -0.4360 -0.7794
vn -0.1981 0.9182 -0.3431
vn -0.4035 -0.5906 -0.6989
vn -0.3573 0.6995 -0.6189
vn -0.3410 -0.7314 -0.5906
vn -0.4378 0.4829 -0.7583
vn -0.2614 -0.8525 -0.4527
vn -0.4785 0.2901 -0.8288
vn -0.5412 0.2485 -0.8034
vn -0.1467 0.9500 0.2755
vn -0.3120 0.9500 -0.0107
vn -0.5431 0.2484 -0.8021
vt 0.481907 0.757225
vt 0.445849 0.684959
vt 0.485136 0.712296
vt 0.751498 0.365641
vt 0.792818 0.122666
vt 0.792818 0.367998
vt 0.484694 0.262744
vt 0.503261 0.237328
vt 0.515927 0.244675
vt 0.488905 0.664981
vt 0.836681 0.365641
vt 0.836681 0.125023
vt 0.548457 0.263346
vt 0.484859 0.300141
vt 0.881252 0.132003
vt 0.881252 0.358661
vt 0.589392 0.286862
vt 0.485031 0.347239
vt 0.924596 0.143339
vt 0.924596 0.347325
vt 0.635243 0.313084
vt 0.485428 0.399758
vt 0.964785 0.158594
vt 0.964785 0.332070
vt 0.662490 0.328504
vt 0.485946 0.430643
vt 1.000000 0.177182
vt 1.000000 0.313482
vt 0.682771 0.347325
vt 0.714360 0.132003
vt 0.714360 0.358661
vt 0.479337 0.798047
vt 0.404843 0.703601
vt 0.751498 0.125023
vt 0.367458 0.720198
vt 0.412625 0.610231
vt 0.788162 0.004714
vt 0.449816 0.637359
vt 0.830201 -0.000000
vt 0.515897 0.208588
vt 0.873346 0.004714
vt 0.548397 0.189863
vt 0.915789 0.018675
vt 0.589293 0.166280
vt 0.955679 0.041346
vt 0.635100 0.139983
vt 0.309065 0.744864
vt 0.349500 0.561600
vt 0.335121 0.734126
vt 0.662322 0.124518
vt 0.378755 0.584646
vt 0.682584 0.113167
vt 0.682771 0.339824
vt 0.484832 0.106075
vt 0.309065 0.526600
vt 0.510319 0.455636
vt 0.325972 0.541995
vt 0.485142 0.053556
vt 0.506274 0.488158
vt 0.485609 0.022671
vt 0.501932 0.526942
vt 0.486231 -0.000000
vt 0.497470 0.570484
vt 0.247976 0.018675
vt 0.205549 0.125023
vt 0.208092 0.004714
vt 0.493070 0.617097
vt 0.162798 0.122666
vt 0.165391 -0.000000
vt 0.484853 0.226657
vt 0.484635 0.190570
vt 0.119022 0.125023
vt 0.121565 0.004714
vt 0.484738 0.153173
vt 0.076057 0.132003
vt 0.078452 0.018675
vt 0.245581 0.132003
vt 0.205549 0.365641
vt 0.574534 0.624108
vt 0.532356 0.644434
vt 0.162798 0.367998
vt 0.453402 0.208639
vt 0.119022 0.365641
vt 0.421140 0.189968
vt 0.076057 0.358660
vt 0.380472 0.166452
vt 0.035778 0.143339
vt 0.035778 0.347325
vt 0.335328 0.140230
vt 0.000000 0.332070
vt 0.000000 0.158594
vt 0.309065 0.158781
vt 0.281417 0.347325
vt 0.281417 0.143339
vt 0.613811 0.604792
vt 0.245581 0.358660
vt 0.677758 0.572145
vt 0.681161 0.785517
vt 0.660850 0.775014
vt 0.380571 0.287034
vt 0.335471 0.313331
vt 0.634290 0.759766
vt 0.648669 0.587241
vt 0.309233 0.328796
vt 0.309065 0.124810
vt 0.602514 0.740344
vt 0.305264 0.529813
vt 0.229477 0.623986
vt 0.270055 0.507806
vt 0.566752 0.717478
vt 0.187772 0.617922
vt 0.230849 0.494587
vt 0.528389 0.692033
vt 0.145169 0.616415
vt 0.189090 0.490664
vt 0.453432 0.244727
vt 0.121565 0.485950
vt 0.421200 0.263452
vt 0.078452 0.471989
vt 0.150385 0.861679
vt 0.108474 0.860073
vt 0.103359 0.619522
vt 0.068914 0.853714
vt 0.064095 0.627120
vt 0.033444 0.842843
vt 0.029107 0.638913
vt 0.000000 0.654444
vt 0.003688 0.827871
vt 0.301584 0.648912
vt 0.273081 0.838301
vt 0.268745 0.634371
vt 0.234296 0.850579
vt 0.192887 0.858473
vt 0.717857 0.490918
vt 0.699948 0.443611
vt 0.717857 0.430643
vt 0.682771 0.143339
vt 0.748897 0.018675
vt 0.513900 0.430643
vt 0.309065 0.331883
vt 0.699948 0.560102
vt 0.165391 0.490664
vt 0.305264 0.821965
vt 0.477517 0.833209
vt 0.700017 0.504063
s 0
usemtl Material.001
f 11/1/1 27/2/1 12/3/1
f 4/4/2 20/5/2 5/6/2
f 90/7/3 93/8/3 13/9/3
f 73/10/4 12/3/4 27/2/4
f 6/11/5 20/5/5 21/12/5
f 90/7/6 14/13/6 91/14/6
f 6/11/7 22/15/7 7/16/7
f 91/14/8 15/17/8 92/18/8
f 7/16/9 23/19/9 8/20/9
f 92/18/10 16/21/10 1/22/10
f 8/20/11 24/23/11 9/24/11
f 1/22/12 17/25/12 2/26/12
f 9/24/13 25/27/13 10/28/13
f 2/29/14 18/30/14 3/31/14
f 10/32/15 26/33/15 11/1/15
f 3/31/16 19/34/16 4/4/16
f 25/35/17 41/36/17 26/33/17
f 18/30/18 34/37/18 19/34/18
f 27/2/19 41/36/19 42/38/19
f 20/5/20 34/37/20 35/39/20
f 93/8/21 28/40/21 13/9/21
f 73/10/22 27/2/22 42/38/22
f 20/5/23 36/41/23 21/12/23
f 13/9/24 29/42/24 14/13/24
f 22/15/25 36/41/25 37/43/25
f 14/13/26 30/44/26 15/17/26
f 22/15/27 38/45/27 23/19/27
f 16/21/28 30/44/28 31/46/28
f 23/47/29 39/48/29 24/49/29
f 16/21/30 32/50/30 17/25/30
f 24/49/31 40/51/31 25/35/31
f 17/25/32 33/52/32 18/53/32
f 29/42/33 45/54/33 30/44/33
f 37/55/34 53/56/34 38/57/34
f 30/44/35 46/58/35 31/46/35
f 39/48/36 53/56/36 54/59/36
f 31/46/37 47/60/37 32/50/37
f 39/48/38 55/61/38 40/51/38
f 32/50/39 48/62/39 33/52/39
f 41/36/40 55/61/40 56/63/40
f 33/64/41 49/65/41 34/66/41
f 41/36/42 57/67/42 42/38/42
f 34/66/43 50/68/43 35/69/43
f 28/40/44 89/70/44 43/71/44
f 73/10/45 42/38/45 57/67/45
f 35/69/46 51/72/46 36/73/46
f 28/40/47 44/74/47 29/42/47
f 36/73/48 52/75/48 37/76/48
f 48/77/49 64/78/49 49/65/49
f 57/67/50 71/79/50 72/80/50
f 50/68/51 64/78/51 65/81/51
f 43/71/52 89/70/52 58/82/52
f 73/10/53 57/67/53 72/80/53
f 51/72/54 65/81/54 66/83/54
f 43/71/55 59/84/55 44/74/55
f 51/72/56 67/85/56 52/75/56
f 44/74/57 60/86/57 45/54/57
f 53/87/58 67/85/58 68/88/58
f 46/58/59 60/86/59 61/89/59
f 53/87/60 69/90/60 54/91/60
f 46/92/61 62/93/61 47/94/61
f 54/59/62 70/95/62 55/61/62
f 47/94/63 63/96/63 48/77/63
f 55/61/64 71/79/64 56/63/64
f 68/97/65 83/98/65 84/99/65
f 61/89/66 76/100/66 77/101/66
f 68/97/67 85/102/67 69/103/67
f 61/89/68 78/104/68 62/105/68
f 69/103/69 86/106/69 70/95/69
f 62/107/70 79/108/70 63/109/70
f 70/95/71 87/110/71 71/79/71
f 63/109/72 80/111/72 64/112/72
f 71/79/73 88/113/73 72/80/73
f 64/112/74 81/114/74 65/115/74
f 58/82/75 89/70/75 74/116/75
f 73/10/76 72/80/76 88/113/76
f 65/81/77 82/117/77 66/83/77
f 58/82/78 75/118/78 59/84/78
f 67/85/79 82/117/79 83/119/79
f 60/86/80 75/118/80 76/100/80
f 87/110/81 12/3/81 88/113/81
f 80/111/82 5/120/82 81/114/82
f 74/116/83 89/70/83 90/7/83
f 73/10/84 88/113/84 12/3/84
f 81/114/85 6/121/85 82/122/85
f 74/116/86 91/14/86 75/118/86
f 82/122/87 7/123/87 83/124/87
f 75/118/88 92/18/88 76/100/88
f 83/124/89 8/125/89 84/126/89
f 76/100/90 1/22/90 77/101/90
f 85/127/91 8/125/91 9/128/91
f 77/129/92 2/130/92 78/131/92
f 85/102/93 10/32/93 86/106/93
f 78/131/94 3/132/94 79/108/94
f 86/106/95 11/1/95 87/110/95
f 79/108/96 4/133/96 80/111/96
f 93/134/97 94/135/97 95/136/97
f 11/1/1 26/33/1 27/2/1
f 4/4/2 19/34/2 20/5/2
f 90/7/98 89/70/98 93/8/98
f 6/11/5 5/6/5 20/5/5
f 90/7/6 13/9/6 14/13/6
f 6/11/7 21/12/7 22/15/7
f 91/14/8 14/13/8 15/17/8
f 7/16/9 22/15/9 23/19/9
f 92/18/10 15/17/10 16/21/10
f 8/20/11 23/19/11 24/23/11
f 1/22/12 16/21/12 17/25/12
f 9/24/13 24/23/13 25/27/13
f 2/29/14 17/137/14 18/30/14
f 10/32/15 25/35/15 26/33/15
f 3/31/16 18/30/16 19/34/16
f 25/35/17 40/51/17 41/36/17
f 18/30/18 33/138/18 34/37/18
f 27/2/19 26/33/19 41/36/19
f 20/5/20 19/34/20 34/37/20
f 93/8/99 89/70/99 28/40/99
f 20/5/23 35/39/23 36/41/23
f 13/9/24 28/40/24 29/42/24
f 22/15/25 21/12/25 36/41/25
f 14/13/26 29/42/26 30/44/26
f 22/15/27 37/43/27 38/45/27
f 16/21/28 15/17/28 30/44/28
f 23/47/29 38/57/29 39/48/29
f 16/21/30 31/46/30 32/50/30
f 24/49/31 39/48/31 40/51/31
f 17/25/32 32/50/32 33/52/32
f 29/42/33 44/74/33 45/54/33
f 37/55/34 52/139/34 53/56/34
f 30/44/35 45/54/35 46/58/35
f 39/48/36 38/57/36 53/56/36
f 31/46/37 46/58/37 47/60/37
f 39/48/38 54/59/38 55/61/38
f 32/50/39 47/60/39 48/62/39
f 41/36/40 40/51/40 55/61/40
f 33/64/41 48/77/41 49/65/41
f 41/36/42 56/63/42 57/67/42
f 34/66/43 49/65/43 50/68/43
f 35/69/46 50/68/46 51/72/46
f 28/40/47 43/71/47 44/74/47
f 36/73/48 51/72/48 52/75/48
f 48/77/49 63/96/49 64/78/49
f 57/67/50 56/63/50 71/79/50
f 50/68/51 49/65/51 64/78/51
f 51/72/54 50/68/54 65/81/54
f 43/71/55 58/82/55 59/84/55
f 51/72/56 66/83/56 67/85/56
f 44/74/57 59/84/57 60/86/57
f 53/87/58 52/75/58 67/85/58
f 46/58/59 45/54/59 60/86/59
f 53/87/60 68/88/60 69/90/60
f 46/92/61 61/140/61 62/93/61
f 54/59/62 69/103/62 70/95/62
f 47/94/63 62/93/63 63/96/63
f 55/61/64 70/95/64 71/79/64
f 68/97/65 67/141/65 83/98/65
f 61/89/66 60/86/66 76/100/66
f 68/97/67 84/99/67 85/102/67
f 61/89/68 77/101/68 78/104/68
f 69/103/69 85/102/69 86/106/69
f 62/107/70 78/131/70 79/108/70
f 70/95/71 86/106/71 87/110/71
f 63/109/72 79/108/72 80/111/72
f 71/79/73 87/110/73 88/113/73
f 64/112/74 80/111/74 81/114/74
f 65/81/77 81/142/77 82/117/77
f 58/82/78 74/116/78 75/118/78
f 67/85/79 66/83/79 82/117/79
f 60/86/80 59/84/80 75/118/80
f 87/110/81 11/1/81 12/3/81
f 80/111/82 4/133/82 5/120/82
f 81/114/85 5/120/85 6/121/85
f 74/116/86 90/7/86 91/14/86
f 82/122/87 6/121/87 7/123/87
f 75/118/88 91/14/88 92/18/88
f 83/124/89 7/123/89 8/125/89
f 76/100/90 92/18/90 1/22/90
f 85/127/91 84/126/91 8/125/91
f 77/129/92 1/143/92 2/130/92
f 85/102/93 9/144/93 10/32/93
f 78/131/94 2/130/94 3/132/94
f 86/106/95 10/32/95 11/1/95
f 79/108/96 3/132/96 4/133/96
f 93/134/100 89/145/100 94/135/100
