# Blender 4.0.1
# www.blender.org
mtllib kiwifruit_half.mtl
o Sphere
v 0.351668 0.000000 -0.966201
v 0.348080 -0.202437 -0.956342
v 0.336707 -0.407779 -0.925094
v 0.309723 -0.605083 -0.850958
v 0.265799 -0.777143 -0.730276
v 0.208837 -0.913824 -0.573774
v 0.143849 -1.015386 -0.395222
v 0.073334 -1.077929 -0.201483
v 0.660920 0.000000 -0.787654
v 0.654177 -0.202437 -0.779617
v 0.632801 -0.407779 -0.754144
v 0.582089 -0.605083 -0.693707
v 0.499538 -0.777143 -0.595326
v 0.392485 -0.913824 -0.467745
v 0.270348 -1.015386 -0.322188
v 0.137822 -1.077929 -0.164250
v 0.890455 0.000000 -0.514105
v 0.881370 -0.202437 -0.508859
v 0.852571 -0.407779 -0.492232
v 0.784247 -0.605083 -0.452785
v 0.673026 -0.777143 -0.388572
v 0.528793 -0.913824 -0.305299
v 0.364239 -1.015386 -0.210293
v 0.185687 -1.077929 -0.107207
v -0.000000 -1.099046 -0.000000
v 1.012589 0.000000 -0.178547
v 1.002257 -0.202437 -0.176725
v 0.969508 -0.407779 -0.170951
v 0.891812 -0.605083 -0.157251
v 0.765337 -0.777143 -0.134950
v 0.601321 -0.913824 -0.106029
v 0.414197 -1.015386 -0.073034
v 0.211156 -1.077929 -0.037233
v 1.012589 0.000000 0.178547
v 1.002257 -0.202437 0.176725
v 0.969508 -0.407779 0.170950
v 0.891812 -0.605083 0.157250
v 0.765337 -0.777143 0.134949
v 0.601321 -0.913824 0.106029
v 0.414197 -1.015386 0.073034
v 0.211156 -1.077929 0.037232
v 0.890455 0.000000 0.514104
v 0.881370 -0.202437 0.508859
v 0.852571 -0.407779 0.492232
v 0.784247 -0.605083 0.452785
v 0.673026 -0.777143 0.388572
v 0.528793 -0.913824 0.305299
v 0.364239 -1.015386 0.210293
v 0.185687 -1.077929 0.107207
v 0.660920 0.000000 0.787654
v 0.654177 -0.202437 0.779617
v 0.632802 -0.407779 0.754143
v 0.582089 -0.605083 0.693707
v 0.499538 -0.777143 0.595326
v 0.392485 -0.913824 0.467745
v 0.270348 -1.015386 0.322188
v 0.137822 -1.077929 0.164250
v 0.351668 0.000000 0.966201
v 0.348080 -0.202437 0.956342
v 0.336707 -0.407779 0.925094
v 0.309723 -0.605083 0.850957
v 0.265799 -0.777143 0.730276
v 0.208837 -0.913824 0.573774
v 0.143849 -1.015386 0.395222
v 0.073334 -1.077929 0.201483
v 0.000000 0.000000 1.028209
v 0.000000 -0.202437 1.017718
v 0.000000 -0.407779 0.984464
v 0.000000 -0.605083 0.905570
v 0.000000 -0.777143 0.777143
v 0.000000 -0.913824 0.610597
v 0.000000 -1.015386 0.420587
v 0.000000 -1.077929 0.214413
v -0.351668 0.000000 0.966201
v -0.348080 -0.202437 0.956342
v -0.336706 -0.407779 0.925094
v -0.309723 -0.605083 0.850957
v -0.265799 -0.777143 0.730276
v -0.208836 -0.913824 0.573774
v -0.143849 -1.015386 0.395222
v -0.073334 -1.077929 0.201483
v -0.660920 0.000000 0.787654
v -0.654177 -0.202437 0.779618
v -0.632801 -0.407779 0.754144
v -0.582089 -0.605083 0.693707
v -0.499538 -0.777143 0.595326
v -0.392484 -0.913824 0.467745
v -0.270348 -1.015386 0.322188
v -0.137822 -1.077929 0.164250
v -0.890455 0.000000 0.514105
v -0.881370 -0.202437 0.508859
v -0.852571 -0.407779 0.492232
v -0.784247 -0.605083 0.452785
v -0.673026 -0.777143 0.388572
v -0.528793 -0.913824 0.305299
v -0.364239 -1.015386 0.210294
v -0.185687 -1.077929 0.107207
v -1.012588 0.000000 0.178547
v -1.002257 -0.202437 0.176725
v -0.969508 -0.407779 0.170951
v -0.891812 -0.605083 0.157251
v -0.765337 -0.777143 0.134950
v -0.601321 -0.913824 0.106029
v -0.414197 -1.015386 0.073034
v -0.211156 -1.077929 0.037233
v -1.012588 0.000000 -0.178546
v -1.002257 -0.202437 -0.176725
v -0.969508 -0.407779 -0.170950
v -0.891812 -0.605083 -0.157250
v -0.765337 -0.777143 -0.134949
v -0.601321 -0.913824 -0.106029
v -0.414197 -1.015386 -0.073034
v -0.211156 -1.077929 -0.037232
v -0.890455 0.000000 -0.514104
v -0.881370 -0.202437 -0.508859
v -0.852571 -0.407779 -0.492232
v -0.784247 -0.605083 -0.452785
v -0.673026 -0.777143 -0.388572
v -0.528793 -0.913824 -0.305299
v -0.364239 -1.015386 -0.210293
v -0.185687 -1.077929 -0.107207
v -0.660920 0.000000 -0.787654
v -0.654177 -0.202437 -0.779617
v -0.632802 -0.407779 -0.754143
v -0.582089 -0.605083 -0.693707
v -0.499538 -0.777143 -0.595326
v -0.392485 -0.913824 -0.467745
v -0.270348 -1.015386 -0.322188
v -0.137822 -1.077929 -0.164250
v -0.351669 0.000000 -0.966201
v -0.348080 -0.202437 -0.956342
v -0.336707 -0.407779 -0.925094
v -0.309723 -0.605083 -0.850957
v -0.265799 -0.777143 -0.730276
v -0.208837 -0.913824 -0.573774
v -0.143849 -1.015386 -0.395222
v -0.073334 -1.077929 -0.201483
v -0.000000 0.000000 -1.028209
v -0.000000 -0.202437 -1.017718
v -0.000000 -0.407779 -0.984464
v -0.000000 -0.605083 -0.905570
v -0.000000 -0.777143 -0.777143
v -0.000000 -0.913824 -0.610597
v -0.000000 -1.015386 -0.420587
v -0.000000 -1.077929 -0.214413
vn 0.1112 -0.7682 -0.6305
vn 0.0828 -0.8789 -0.4698
vn 0.0511 -0.9557 -0.2899
vn 0.0173 -0.9950 -0.0980
vn 0.1734 -0.0510 -0.9835
vn 0.1715 -0.1575 -0.9725
vn 0.1616 -0.3664 -0.9163
vn 0.1399 -0.5923 -0.7935
vn 0.4029 -0.5923 -0.6978
vn 0.3201 -0.7682 -0.5544
vn 0.2385 -0.8789 -0.4131
vn 0.1472 -0.9557 -0.2549
vn 0.0498 -0.9950 -0.0862
vn 0.4994 -0.0510 -0.8649
vn 0.4938 -0.1575 -0.8552
vn 0.4652 -0.3664 -0.8058
vn 0.0762 -0.9950 -0.0640
vn 0.7650 -0.0510 -0.6420
vn 0.7565 -0.1575 -0.6348
vn 0.7128 -0.3664 -0.5981
vn 0.6172 -0.5923 -0.5179
vn 0.4904 -0.7682 -0.4115
vn 0.3654 -0.8789 -0.3066
vn 0.2255 -0.9557 -0.1892
vn 0.6016 -0.7682 -0.2190
vn 0.4483 -0.8789 -0.1632
vn 0.2766 -0.9557 -0.1007
vn 0.0935 -0.9950 -0.0340
vn 0.9385 -0.0510 -0.3416
vn 0.9280 -0.1575 -0.3378
vn 0.8743 -0.3664 -0.3182
vn 0.7571 -0.5923 -0.2756
vn 0.9987 -0.0510 -0.0000
vn 0.9875 -0.1575 -0.0000
vn 0.9305 -0.3664 -0.0000
vn 0.8057 -0.5923 -0.0000
vn 0.6402 -0.7682 -0.0000
vn 0.4770 -0.8789 -0.0000
vn 0.2944 -0.9557 -0.0000
vn 0.0995 -0.9950 -0.0000
vn 0.6016 -0.7682 0.2190
vn 0.4483 -0.8789 0.1632
vn 0.2766 -0.9557 0.1007
vn 0.0935 -0.9950 0.0340
vn 0.9385 -0.0510 0.3416
vn 0.9280 -0.1575 0.3378
vn 0.8743 -0.3664 0.3182
vn 0.7571 -0.5923 0.2756
vn 0.7565 -0.1575 0.6348
vn 0.7128 -0.3664 0.5981
vn 0.6172 -0.5923 0.5179
vn 0.4904 -0.7682 0.4115
vn 0.3654 -0.8789 0.3066
vn 0.2255 -0.9557 0.1892
vn 0.0762 -0.9950 0.0640
vn 0.7650 -0.0510 0.6420
vn 0.2385 -0.8789 0.4131
vn 0.1472 -0.9557 0.2549
vn 0.0498 -0.9950 0.0862
vn 0.4993 -0.0510 0.8649
vn 0.4938 -0.1575 0.8552
vn 0.4652 -0.3664 0.8058
vn 0.4029 -0.5923 0.6978
vn 0.3201 -0.7682 0.5544
vn 0.1715 -0.1575 0.9725
vn 0.1616 -0.3664 0.9163
vn 0.1399 -0.5923 0.7935
vn 0.1112 -0.7682 0.6305
vn 0.0828 -0.8789 0.4698
vn 0.0511 -0.9557 0.2899
vn 0.0173 -0.9950 0.0980
vn 0.1734 -0.0510 0.9835
vn -0.0828 -0.8789 0.4698
vn -0.0511 -0.9557 0.2899
vn -0.0173 -0.9950 0.0980
vn -0.1734 -0.0510 0.9835
vn -0.1715 -0.1575 0.9725
vn -0.1616 -0.3664 0.9163
vn -0.1399 -0.5923 0.7935
vn -0.1112 -0.7682 0.6305
vn -0.4652 -0.3664 0.8058
vn -0.4029 -0.5923 0.6978
vn -0.3201 -0.7682 0.5544
vn -0.2385 -0.8789 0.4131
vn -0.1472 -0.9557 0.2549
vn -0.0498 -0.9950 0.0862
vn -0.4994 -0.0510 0.8649
vn -0.4938 -0.1575 0.8552
vn -0.2255 -0.9557 0.1892
vn -0.0762 -0.9950 0.0640
vn -0.7650 -0.0510 0.6420
vn -0.7565 -0.1575 0.6348
vn -0.7128 -0.3664 0.5981
vn -0.6172 -0.5923 0.5179
vn -0.4904 -0.7682 0.4115
vn -0.3654 -0.8789 0.3066
vn -0.7571 -0.5923 0.2756
vn -0.6016 -0.7682 0.2190
vn -0.4483 -0.8789 0.1632
vn -0.2766 -0.9557 0.1007
vn -0.0935 -0.9950 0.0340
vn -0.9385 -0.0510 0.3416
vn -0.9280 -0.1575 0.3378
vn -0.8743 -0.3664 0.3182
vn -0.0995 -0.9950 -0.0000
vn -0.9987 -0.0510 -0.0000
vn -0.9875 -0.1575 -0.0000
vn -0.9305 -0.3664 -0.0000
vn -0.8057 -0.5923 -0.0000
vn -0.6402 -0.7682 -0.0000
vn -0.4770 -0.8789 -0.0000
vn -0.2944 -0.9557 -0.0000
vn -0.7571 -0.5923 -0.2756
vn -0.6016 -0.7682 -0.2190
vn -0.4483 -0.8789 -0.1632
vn -0.2766 -0.9557 -0.1007
vn -0.0935 -0.9950 -0.0340
vn -0.9385 -0.0510 -0.3416
vn -0.9280 -0.1575 -0.3378
vn -0.8743 -0.3664 -0.3182
vn -0.0762 -0.9950 -0.0640
vn -0.7650 -0.0510 -0.6420
vn -0.7565 -0.1575 -0.6348
vn -0.7128 -0.3664 -0.5981
vn -0.6172 -0.5923 -0.5179
vn -0.4904 -0.7682 -0.4115
vn -0.3654 -0.8789 -0.3066
vn -0.2255 -0.9557 -0.1892
vn -0.3201 -0.7682 -0.5544
vn -0.2385 -0.8789 -0.4131
vn -0.1472 -0.9557 -0.2549
vn -0.0498 -0.9950 -0.0862
vn -0.4994 -0.0510 -0.8649
vn -0.4938 -0.1575 -0.8552
vn -0.4652 -0.3664 -0.8058
vn -0.4029 -0.5923 -0.6978
vn -0.1734 -0.0510 -0.9835
vn -0.1715 -0.1575 -0.9725
vn -0.1616 -0.3664 -0.9163
vn -0.1399 -0.5923 -0.7935
vn -0.1112 -0.7682 -0.6305
vn -0.0828 -0.8789 -0.4698
vn -0.0511 -0.9557 -0.2899
vn -0.0000 1.0000 -0.0000
vn -0.0173 -0.9950 -0.0980
vn 0.4994 -0.0510 0.8649
vn -0.4993 -0.0510 0.8649
vt 0.422966 0.374186
vt 0.424106 0.363352
vt 0.429527 0.370502
vt 0.435543 0.349884
vt 0.444466 0.361900
vt 0.526350 0.250749
vt 0.553030 0.304602
vt 0.693159 0.201643
vt 0.414746 0.378700
vt 0.411613 0.377508
vt 0.412711 0.376274
vt 0.414158 0.374653
vt 0.416651 0.377650
vt 0.419110 0.376297
vt 0.416095 0.372484
vt 0.419193 0.369027
vt 0.413658 0.365705
vt 0.416373 0.358484
vt 0.422722 0.341386
vt 0.478728 0.204915
vt 0.633158 0.092118
vt 0.410070 0.374593
vt 0.410874 0.372600
vt 0.411966 0.369857
vt 0.528670 0.000101
vt 0.411987 0.175680
vt 0.409424 0.376118
vt 0.407006 0.373957
vt 0.407067 0.371806
vt 0.407144 0.368839
vt 0.407294 0.364412
vt 0.407338 0.356573
vt 0.407405 0.337691
vt 0.398094 0.357952
vt 0.391328 0.339379
vt 0.344742 0.207791
vt 0.286854 0.000101
vt 0.406934 0.375616
vt 0.403915 0.374444
vt 0.403214 0.372395
vt 0.402231 0.369547
vt 0.400860 0.365466
vt 0.404437 0.376031
vt 0.401187 0.376003
vt 0.399813 0.374338
vt 0.397925 0.372057
vt 0.394922 0.368431
vt 0.389804 0.362547
vt 0.376333 0.346624
vt 0.278491 0.230205
vt 0.247744 0.030197
vt 0.383753 0.369930
vt 0.366782 0.360344
vt 0.219241 0.279847
vt 0.107397 0.086174
vt 0.402237 0.377306
vt 0.399173 0.378423
vt 0.397293 0.377341
vt 0.394693 0.375858
vt 0.390743 0.373584
vt 0.395987 0.381039
vt 0.393030 0.380557
vt 0.388594 0.379815
vt 0.380832 0.378868
vt 0.362520 0.375946
vt 0.218558 0.356624
vt 0.000101 0.316291
vt 0.400618 0.379279
vt 0.398129 0.381398
vt 0.381215 0.388129
vt 0.364022 0.391656
vt 0.208446 0.426745
vt 0.013671 0.362865
vt 0.399785 0.381699
vt 0.398182 0.384552
vt 0.396051 0.384953
vt 0.393099 0.385525
vt 0.388724 0.386353
vt 0.397472 0.388583
vt 0.394819 0.390175
vt 0.391061 0.392410
vt 0.384638 0.396582
vt 0.370919 0.405322
vt 0.223911 0.501858
vt 0.002123 0.508374
vt 0.399842 0.384263
vt 0.399318 0.387493
vt 0.380449 0.416936
vt 0.291576 0.539985
vt 0.149088 0.713754
vt 0.400776 0.386660
vt 0.401369 0.389881
vt 0.399991 0.391542
vt 0.398115 0.393854
vt 0.395352 0.397212
vt 0.390758 0.403229
vt 0.402390 0.396258
vt 0.400997 0.400196
vt 0.398717 0.407445
vt 0.393561 0.424414
vt 0.358894 0.550959
vt 0.293963 0.737313
vt 0.402462 0.388601
vt 0.404107 0.391432
vt 0.403374 0.393458
vt 0.417917 0.539694
vt 0.420509 0.713530
vt 0.404703 0.389852
vt 0.407215 0.391984
vt 0.407193 0.394090
vt 0.407218 0.396962
vt 0.407267 0.401449
vt 0.407601 0.408735
vt 0.408439 0.427084
vt 0.413429 0.400122
vt 0.416287 0.406885
vt 0.422615 0.422441
vt 0.462589 0.513306
vt 0.515452 0.653803
vt 0.409718 0.389912
vt 0.410244 0.391415
vt 0.410948 0.393410
vt 0.411943 0.396112
vt 0.538086 0.630993
vt 0.507161 0.494634
vt 0.411868 0.388700
vt 0.412880 0.389955
vt 0.414213 0.391561
vt 0.416071 0.393758
vt 0.418695 0.396878
vt 0.423671 0.402369
vt 0.433905 0.413695
vt 0.422865 0.392281
vt 0.429119 0.395740
vt 0.443098 0.403267
vt 0.546614 0.460951
vt 0.622876 0.590225
vt 0.414857 0.387641
vt 0.416628 0.388680
vt 0.419063 0.390072
vt 0.699255 0.443591
vt 0.549821 0.407952
vt 0.414262 0.384484
vt 0.415833 0.384747
vt 0.417909 0.385119
vt 0.420719 0.385620
vt 0.424887 0.386411
vt 0.432082 0.387594
vt 0.448275 0.390148
vt 0.432208 0.378884
vt 0.448764 0.375838
vt 0.559824 0.358948
vt 0.694473 0.411956
vt 0.414165 0.381991
vt 0.415856 0.381662
vt 0.417944 0.381311
vt 0.420793 0.380830
vt 0.424825 0.380195
vt 0.413284 0.379563
vt 0.773670 0.973981
vt 0.700752 0.560438
vt 0.958307 0.654180
vt 0.711302 0.312413
vt 0.407241 0.390261
vt 0.413410 0.386819
vt 0.983632 0.797802
vt 0.958307 0.867381
vt 0.910713 0.924101
vt 0.846589 0.961123
vt 0.700752 0.961123
vt 0.636628 0.924101
vt 0.589034 0.867381
vt 0.563709 0.797802
vt 0.563709 0.723759
vt 0.589034 0.654180
vt 0.636628 0.597460
vt 0.773670 0.547580
vt 0.846589 0.560438
vt 0.910713 0.597460
vt 0.983632 0.723759
s 0
usemtl Material.001
f 142/1/1 6/2/1 143/3/1
f 143/3/2 7/4/2 144/5/2
f 144/5/3 8/6/3 145/7/3
f 25/8/4 145/7/4 8/6/4
f 139/9/5 1/10/5 2/11/5
f 139/9/6 3/12/6 140/13/6
f 141/14/7 3/12/7 4/15/7
f 141/14/8 5/16/8 142/1/8
f 4/15/9 13/17/9 5/16/9
f 5/16/10 14/18/10 6/2/10
f 6/2/11 15/19/11 7/4/11
f 7/4/12 16/20/12 8/6/12
f 25/21/13 8/6/13 16/20/13
f 1/10/14 10/22/14 2/11/14
f 2/11/15 11/23/15 3/12/15
f 4/15/16 11/23/16 12/24/16
f 25/25/17 16/20/17 24/26/17
f 9/27/18 18/28/18 10/22/18
f 10/22/19 19/29/19 11/23/19
f 11/23/20 20/30/20 12/24/20
f 13/17/21 20/30/21 21/31/21
f 13/17/22 22/32/22 14/18/22
f 14/18/23 23/33/23 15/19/23
f 15/19/24 24/26/24 16/20/24
f 21/31/25 31/34/25 22/32/25
f 22/32/26 32/35/26 23/33/26
f 23/33/27 33/36/27 24/26/27
f 25/37/28 24/26/28 33/36/28
f 17/38/29 27/39/29 18/28/29
f 18/28/30 28/40/30 19/29/30
f 20/30/31 28/40/31 29/41/31
f 21/31/32 29/41/32 30/42/32
f 26/43/33 35/44/33 27/39/33
f 27/39/34 36/45/34 28/40/34
f 28/40/35 37/46/35 29/41/35
f 29/41/36 38/47/36 30/42/36
f 30/42/37 39/48/37 31/34/37
f 31/34/38 40/49/38 32/35/38
f 32/35/39 41/50/39 33/36/39
f 25/51/40 33/36/40 41/50/40
f 38/47/41 47/52/41 39/48/41
f 39/48/42 48/53/42 40/49/42
f 40/49/43 49/54/43 41/50/43
f 25/55/44 41/50/44 49/54/44
f 34/56/45 43/57/45 35/44/45
f 35/44/46 44/58/46 36/45/46
f 36/45/47 45/59/47 37/46/47
f 38/47/48 45/59/48 46/60/48
f 43/57/49 52/61/49 44/58/49
f 45/59/50 52/61/50 53/62/50
f 46/60/51 53/62/51 54/63/51
f 46/60/52 55/64/52 47/52/52
f 48/53/53 55/64/53 56/65/53
f 49/54/54 56/65/54 57/66/54
f 25/67/55 49/54/55 57/66/55
f 42/68/56 51/69/56 43/57/56
f 56/65/57 63/70/57 64/71/57
f 57/66/58 64/71/58 65/72/58
f 25/73/59 57/66/59 65/72/59
f 50/74/60 59/75/60 51/69/60
f 51/69/61 60/76/61 52/61/61
f 52/61/62 61/77/62 53/62/62
f 54/63/63 61/77/63 62/78/63
f 54/63/64 63/70/64 55/64/64
f 59/75/65 68/79/65 60/76/65
f 60/76/66 69/80/66 61/77/66
f 61/77/67 70/81/67 62/78/67
f 62/78/68 71/82/68 63/70/68
f 64/71/69 71/82/69 72/83/69
f 65/72/70 72/83/70 73/84/70
f 25/85/71 65/72/71 73/84/71
f 58/86/72 67/87/72 59/75/72
f 71/82/73 80/88/73 72/83/73
f 72/83/74 81/89/74 73/84/74
f 25/90/75 73/84/75 81/89/75
f 66/91/76 75/92/76 67/87/76
f 67/87/77 76/93/77 68/79/77
f 69/80/78 76/93/78 77/94/78
f 69/80/79 78/95/79 70/81/79
f 70/81/80 79/96/80 71/82/80
f 76/93/81 85/97/81 77/94/81
f 78/95/82 85/97/82 86/98/82
f 78/95/83 87/99/83 79/96/83
f 79/96/84 88/100/84 80/88/84
f 80/88/85 89/101/85 81/89/85
f 25/102/86 81/89/86 89/101/86
f 74/103/87 83/104/87 75/92/87
f 75/92/88 84/105/88 76/93/88
f 88/100/89 97/106/89 89/101/89
f 25/107/90 89/101/90 97/106/90
f 82/108/91 91/109/91 83/104/91
f 83/104/92 92/110/92 84/105/92
f 84/105/93 93/111/93 85/97/93
f 85/97/94 94/112/94 86/98/94
f 86/98/95 95/113/95 87/99/95
f 88/100/96 95/113/96 96/114/96
f 93/111/97 102/115/97 94/112/97
f 94/112/98 103/116/98 95/113/98
f 95/113/99 104/117/99 96/114/99
f 96/114/100 105/118/100 97/106/100
f 25/119/101 97/106/101 105/118/101
f 91/109/102 98/120/102 99/121/102
f 91/109/103 100/122/103 92/110/103
f 93/111/104 100/122/104 101/123/104
f 25/124/105 105/118/105 113/125/105
f 99/121/106 106/126/106 107/127/106
f 99/121/107 108/128/107 100/122/107
f 101/123/108 108/128/108 109/129/108
f 102/115/109 109/129/109 110/130/109
f 102/115/110 111/131/110 103/116/110
f 103/116/111 112/132/111 104/117/111
f 104/117/112 113/125/112 105/118/112
f 109/129/113 118/133/113 110/130/113
f 110/130/114 119/134/114 111/131/114
f 111/131/115 120/135/115 112/132/115
f 112/132/116 121/136/116 113/125/116
f 25/137/117 113/125/117 121/136/117
f 106/126/118 115/138/118 107/127/118
f 107/127/119 116/139/119 108/128/119
f 109/129/120 116/139/120 117/140/120
f 25/141/121 121/136/121 129/142/121
f 115/138/122 122/143/122 123/144/122
f 115/138/123 124/145/123 116/139/123
f 117/140/124 124/145/124 125/146/124
f 117/140/125 126/147/125 118/133/125
f 118/133/126 127/148/126 119/134/126
f 119/134/127 128/149/127 120/135/127
f 120/135/128 129/142/128 121/136/128
f 126/147/129 135/150/129 127/148/129
f 127/148/130 136/151/130 128/149/130
f 128/149/131 137/152/131 129/142/131
f 25/153/132 129/142/132 137/152/132
f 123/144/133 130/154/133 131/155/133
f 123/144/134 132/156/134 124/145/134
f 125/146/135 132/156/135 133/157/135
f 125/146/136 134/158/136 126/147/136
f 131/155/137 138/159/137 139/9/137
f 131/155/138 140/13/138 132/156/138
f 133/157/139 140/13/139 141/14/139
f 133/157/140 142/1/140 134/158/140
f 134/158/141 143/3/141 135/150/141
f 136/151/142 143/3/142 144/5/142
f 136/151/143 145/7/143 137/152/143
f 130/160/144 66/161/144 34/162/144
f 25/163/145 137/152/145 145/7/145
f 142/1/1 5/16/1 6/2/1
f 143/3/2 6/2/2 7/4/2
f 144/5/3 7/4/3 8/6/3
f 139/9/5 138/159/5 1/10/5
f 139/9/6 2/11/6 3/12/6
f 141/14/7 140/13/7 3/12/7
f 141/14/8 4/15/8 5/16/8
f 4/15/9 12/24/9 13/17/9
f 5/16/10 13/17/10 14/18/10
f 6/2/11 14/18/11 15/19/11
f 7/4/12 15/19/12 16/20/12
f 1/10/14 9/27/14 10/22/14
f 2/11/15 10/22/15 11/23/15
f 4/15/16 3/12/16 11/23/16
f 9/27/18 17/38/18 18/28/18
f 10/22/19 18/28/19 19/29/19
f 11/23/20 19/29/20 20/30/20
f 13/17/21 12/24/21 20/30/21
f 13/17/22 21/31/22 22/32/22
f 14/18/23 22/32/23 23/33/23
f 15/19/24 23/33/24 24/26/24
f 21/31/25 30/42/25 31/34/25
f 22/32/26 31/34/26 32/35/26
f 23/33/27 32/35/27 33/36/27
f 17/38/29 26/43/29 27/39/29
f 18/28/30 27/39/30 28/40/30
f 20/30/31 19/29/31 28/40/31
f 21/31/32 20/30/32 29/41/32
f 26/43/33 34/56/33 35/44/33
f 27/39/34 35/44/34 36/45/34
f 28/40/35 36/45/35 37/46/35
f 29/41/36 37/46/36 38/47/36
f 30/42/37 38/47/37 39/48/37
f 31/34/38 39/48/38 40/49/38
f 32/35/39 40/49/39 41/50/39
f 38/47/41 46/60/41 47/52/41
f 39/48/42 47/52/42 48/53/42
f 40/49/43 48/53/43 49/54/43
f 34/56/45 42/68/45 43/57/45
f 35/44/46 43/57/46 44/58/46
f 36/45/47 44/58/47 45/59/47
f 38/47/48 37/46/48 45/59/48
f 43/57/49 51/69/49 52/61/49
f 45/59/50 44/58/50 52/61/50
f 46/60/51 45/59/51 53/62/51
f 46/60/52 54/63/52 55/64/52
f 48/53/53 47/52/53 55/64/53
f 49/54/54 48/53/54 56/65/54
f 42/68/56 50/74/56 51/69/56
f 56/65/57 55/64/57 63/70/57
f 57/66/58 56/65/58 64/71/58
f 50/74/146 58/86/146 59/75/146
f 51/69/61 59/75/61 60/76/61
f 52/61/62 60/76/62 61/77/62
f 54/63/63 53/62/63 61/77/63
f 54/63/64 62/78/64 63/70/64
f 59/75/65 67/87/65 68/79/65
f 60/76/66 68/79/66 69/80/66
f 61/77/67 69/80/67 70/81/67
f 62/78/68 70/81/68 71/82/68
f 64/71/69 63/70/69 71/82/69
f 65/72/70 64/71/70 72/83/70
f 58/86/72 66/91/72 67/87/72
f 71/82/73 79/96/73 80/88/73
f 72/83/74 80/88/74 81/89/74
f 66/91/76 74/103/76 75/92/76
f 67/87/77 75/92/77 76/93/77
f 69/80/78 68/79/78 76/93/78
f 69/80/79 77/94/79 78/95/79
f 70/81/80 78/95/80 79/96/80
f 76/93/81 84/105/81 85/97/81
f 78/95/82 77/94/82 85/97/82
f 78/95/83 86/98/83 87/99/83
f 79/96/84 87/99/84 88/100/84
f 80/88/85 88/100/85 89/101/85
f 74/103/147 82/108/147 83/104/147
f 75/92/88 83/104/88 84/105/88
f 88/100/89 96/114/89 97/106/89
f 82/108/91 90/164/91 91/109/91
f 83/104/92 91/109/92 92/110/92
f 84/105/93 92/110/93 93/111/93
f 85/97/94 93/111/94 94/112/94
f 86/98/95 94/112/95 95/113/95
f 88/100/96 87/99/96 95/113/96
f 93/111/97 101/123/97 102/115/97
f 94/112/98 102/115/98 103/116/98
f 95/113/99 103/116/99 104/117/99
f 96/114/100 104/117/100 105/118/100
f 91/109/102 90/164/102 98/120/102
f 91/109/103 99/121/103 100/122/103
f 93/111/104 92/110/104 100/122/104
f 99/121/106 98/120/106 106/126/106
f 99/121/107 107/127/107 108/128/107
f 101/123/108 100/122/108 108/128/108
f 102/115/109 101/123/109 109/129/109
f 102/115/110 110/130/110 111/131/110
f 103/116/111 111/131/111 112/132/111
f 104/117/112 112/132/112 113/125/112
f 109/129/113 117/140/113 118/133/113
f 110/130/114 118/133/114 119/134/114
f 111/131/115 119/134/115 120/135/115
f 112/132/116 120/135/116 121/136/116
f 106/126/118 114/165/118 115/138/118
f 107/127/119 115/138/119 116/139/119
f 109/129/120 108/128/120 116/139/120
f 115/138/122 114/165/122 122/143/122
f 115/138/123 123/144/123 124/145/123
f 117/140/124 116/139/124 124/145/124
f 117/140/125 125/146/125 126/147/125
f 118/133/126 126/147/126 127/148/126
f 119/134/127 127/148/127 128/149/127
f 120/135/128 128/149/128 129/142/128
f 126/147/129 134/158/129 135/150/129
f 127/148/130 135/150/130 136/151/130
f 128/149/131 136/151/131 137/152/131
f 123/144/133 122/143/133 130/154/133
f 123/144/134 131/155/134 132/156/134
f 125/146/135 124/145/135 132/156/135
f 125/146/136 133/157/136 134/158/136
f 131/155/137 130/154/137 138/159/137
f 131/155/138 139/9/138 140/13/138
f 133/157/139 132/156/139 140/13/139
f 133/157/140 141/14/140 142/1/140
f 134/158/141 142/1/141 143/3/141
f 136/151/142 135/150/142 143/3/142
f 136/151/143 144/5/143 145/7/143
f 17/166/144 9/167/144 1/168/144
f 1/168/144 138/169/144 130/160/144
f 130/160/144 122/170/144 114/171/144
f 114/171/144 106/172/144 98/173/144
f 98/173/144 90/174/144 82/175/144
f 82/175/144 74/176/144 66/161/144
f 66/161/144 58/177/144 50/178/144
f 50/178/144 42/179/144 34/162/144
f 34/162/144 26/180/144 17/166/144
f 17/166/144 1/168/144 130/160/144
f 130/160/144 114/171/144 98/173/144
f 98/173/144 82/175/144 66/161/144
f 66/161/144 50/178/144 34/162/144
f 34/162/144 17/166/144 130/160/144
f 130/160/144 98/173/144 66/161/144
