# Blender 4.2.9 LTS
# www.blender.org
mtllib bamboo.mtl
o fuck
v 1.000000 0.000000 1.000000
v 0.500000 0.000002 1.866000
v -0.500000 0.000002 1.866000
v -1.000000 0.000000 1.000000
v -1.000000 -0.000000 -1.000000
v -0.500000 -0.000000 -1.866000
v 0.500000 -0.000000 -1.866000
v 1.000000 -0.000000 -1.000000
v 0.800000 0.000000 0.800000
v 0.400000 0.000000 1.566000
v -0.400000 0.000000 1.566000
v -0.800000 0.000000 0.800000
v -0.800000 -0.000000 -0.800000
v -0.400000 -0.000000 -1.566000
v 0.400000 -0.000000 -1.566000
v 0.800000 -0.000000 -0.800000
v 1.100000 9.621567 1.100000
v 0.600000 12.026958 1.966000
v -0.400000 8.659410 1.866000
v -1.200000 10.583723 1.000000
v -0.900000 9.140487 -1.100000
v -0.600000 11.064799 -1.966000
v 0.400000 8.178330 -1.766000
v 1.100000 10.102643 -0.900000
v 0.900000 9.621567 0.900000
v 0.500000 12.026958 1.666000
v -0.300000 8.659410 1.566000
v -1.000000 10.583723 0.800000
v -0.700000 9.140487 -0.900000
v -0.500000 11.064799 -1.666000
v 0.300000 8.178330 -1.466000
v 0.900000 10.102644 -0.700000
v 1.000000 19.243132 1.000000
v 0.500000 19.243132 1.866000
v -0.500000 19.243132 1.866000
v -1.000000 19.243132 1.000000
v -1.000000 19.243130 -1.000000
v -0.500000 19.243130 -1.866000
v 0.500000 19.243130 -1.866000
v 1.000000 19.243130 -1.000000
v 0.800000 19.243130 0.800000
v 0.400000 19.243132 1.566000
v -0.400000 19.243132 1.566000
v -0.400000 19.243130 -1.566000
v 0.400000 19.243130 -1.566000
v 0.800000 19.243130 -0.800000
v 1.200000 28.864695 0.800000
v 0.700000 27.902540 1.766000
v -0.600000 29.826853 1.965999
v -1.100000 28.383617 0.899999
v -1.200000 29.345774 -1.200001
v -0.400000 27.421459 -1.866000
v 0.600000 30.307930 -1.666000
v 1.100000 27.902540 -1.100001
v 1.000000 28.864695 0.600000
v 0.600000 27.902540 1.465999
v -0.500000 29.826853 1.666000
v -0.900000 28.383617 0.700000
v -1.000000 29.345774 -1.000000
v -0.300000 27.421459 -1.566000
v 0.500000 30.307932 -1.366001
v 0.900000 27.902540 -0.900000
vn -0.0000 1.0000 -0.0000
vn 0.8582 -0.0127 0.5131
vn -0.0425 -0.0044 0.9991
vn -0.8020 -0.0042 0.5973
vn -0.9975 -0.0054 -0.0711
vn -0.9060 -0.0042 -0.4232
vn 0.1010 0.0010 -0.9949
vn 0.8187 0.0063 -0.5742
vn 0.9999 -0.0101 -0.0012
vn 0.8781 -0.0125 0.4782
vn -0.0533 -0.0043 0.9986
vn -0.8148 -0.0042 0.5797
vn -0.9961 -0.0055 -0.0881
vn -0.9296 -0.0036 -0.3686
vn 0.1264 0.0013 -0.9920
vn 0.8339 0.0060 -0.5519
vn 0.9999 -0.0101 -0.0015
vn 0.8131 0.3176 -0.4879
vn -0.9661 0.2582 -0.0000
vn 0.7506 0.4835 0.4504
vn -0.0000 0.7963 -0.6049
vn -0.8144 0.3130 0.4886
vn 0.9547 0.2977 -0.0000
vn -0.7646 0.4528 -0.4587
vn -0.0000 0.9661 0.2582
vn 0.8754 0.0161 0.4830
vn -0.9405 0.0650 0.3336
vn -0.0227 -0.0006 0.9997
vn -0.9972 0.0057 -0.0750
vn -0.9097 0.0045 -0.4152
vn 0.0980 -0.0010 -0.9952
vn 0.8249 -0.0056 -0.5653
vn 0.9999 0.0107 0.0013
vn 0.9340 -0.0424 -0.3547
vn -0.8645 0.1944 0.4636
vn 0.7393 -0.0294 0.6727
vn -0.9931 0.1008 -0.0598
vn -0.6977 -0.0950 0.7100
vn -0.8303 0.0534 -0.5548
vn -0.8879 -0.0572 -0.4565
vn 0.3088 0.1331 0.9418
vn 0.9450 -0.0440 -0.3242
vn -0.5839 0.2990 0.7547
vn 0.7875 -0.0419 0.6149
vn -0.9657 0.1678 0.1983
vn -0.8539 -0.0888 0.5127
vn -0.7130 0.1604 -0.6825
vn -0.8574 -0.0838 -0.5078
vn 0.9516 0.1336 -0.2768
vn -0.9547 0.2977 -0.0000
vn 0.8277 0.2614 0.4966
vt 0.166009 0.168063
vt 0.189225 0.159397
vt 0.192991 0.171666
vt 0.198987 0.168921
vt 0.206085 0.186032
vt 0.212116 0.188028
vt 0.212810 0.194774
vt 0.229514 0.201253
vt 0.196114 0.191749
vt 0.177867 0.194983
vt 0.207570 0.180316
vt 0.204025 0.183639
vt 0.219433 0.162421
vt 0.213424 0.169653
vt 0.220336 0.130966
vt 0.225246 0.155800
vt 0.102868 0.726694
vt 0.034572 0.948454
vt 0.093200 0.663791
vt 0.088246 0.703008
vt 0.034572 0.603148
vt 0.081936 0.687502
vt 0.188015 0.568648
vt 0.237913 0.705012
vt 0.191897 0.166062
vt 0.193464 0.165952
vt 0.194780 0.168994
vt 0.192726 0.166041
vt 0.190912 0.168643
vt 0.188939 0.165587
vt 0.195403 0.164969
vt 0.189998 0.166891
vt 0.262524 0.462127
vt 0.279380 0.458708
vt 0.279313 0.563598
vt 0.262524 0.568347
vt 0.390582 0.672150
vt 0.378698 0.682649
vt 0.494159 0.687138
vt 0.500868 0.699960
vt 0.514310 0.605592
vt 0.531756 0.601931
vt 0.494140 0.506371
vt 0.512263 0.500615
vt 0.408702 0.396845
vt 0.419957 0.387700
vt 0.319657 0.390158
vt 0.315046 0.378532
vt 0.611338 0.200349
vt 0.735668 0.514959
vt 0.721295 0.618827
vt 0.593861 0.290345
vt 0.701357 0.623089
vt 0.625151 0.481578
vt 0.454368 0.126930
vt 0.652141 0.635902
vt 0.409409 0.265297
vt 0.944369 0.220788
vt 0.944369 0.632686
vt 0.874223 0.436768
vt 0.854016 0.177729
vt 0.845121 0.431046
vt 0.821193 0.229348
vt 0.819162 0.432452
vt 0.760379 0.142672
vt 0.796043 0.438659
vt 0.724316 0.202204
vt 0.136910 0.889469
vt 0.493278 0.853043
vt 0.487730 0.819087
vt 0.217842 0.899371
vt 0.491957 0.760263
vt 0.126128 0.930649
vt 0.900875 0.664585
vt 0.165265 0.929564
vt 0.891598 0.715576
vt 0.118003 0.960640
vt 1.002225 0.767146
vt 0.186768 0.953666
vt 0.913394 0.825827
vt 0.077812 0.922574
vt 0.929028 0.960640
vt 0.138822 0.855413
vt 0.831020 0.469977
vt 0.832562 0.468177
vt 0.832392 0.466032
vt 0.819270 0.645849
vt 0.830881 0.464144
vt 0.829090 0.465322
vt 0.829359 0.466929
vt 0.828119 0.468002
vt 0.828464 0.469910
vt 0.831154 0.469755
vt 0.831937 0.468076
vt 0.832683 0.465907
s 0
usemtl Material.001
f 1/1/1 9/2/1 10/3/1 2/4/1
f 2/4/1 10/3/1 11/5/1 3/6/1
f 3/6/1 11/5/1 12/7/1 4/8/1
f 4/8/1 12/7/1 13/9/1 5/10/1
f 5/10/1 13/9/1 14/11/1 6/12/1
f 6/12/1 14/11/1 15/13/1 7/14/1
f 7/14/1 15/13/1 16/15/1 8/16/1
f 8/16/1 16/15/1 9/2/1 1/1/1
f 1/1/2 17/17/2 18/18/2 2/4/2
f 2/4/3 18/18/3 19/19/3 3/6/3
f 3/6/4 19/19/4 20/20/4 4/8/4
f 4/8/5 20/20/5 21/21/5 5/10/5
f 5/10/6 21/21/6 22/22/6 6/12/6
f 6/12/7 22/22/7 23/23/7 7/14/7
f 7/14/8 23/23/8 24/24/8 8/16/8
f 8/16/9 24/24/9 17/17/9 1/1/9
f 9/2/10 25/25/10 26/26/10 10/3/10
f 10/3/11 26/26/11 27/27/11 11/5/11
f 11/5/12 27/27/12 28/28/12 12/7/12
f 12/7/13 28/28/13 29/29/13 13/9/13
f 13/9/14 29/29/14 30/30/14 14/11/14
f 14/11/15 30/30/15 31/31/15 15/13/15
f 15/13/16 31/31/16 32/32/16 16/15/16
f 16/15/17 32/32/17 25/25/17 9/2/17
f 17/33/18 25/34/18 26/35/18 18/36/18
f 18/36/19 26/35/19 27/37/19 19/38/19
f 19/38/20 27/37/20 28/39/20 20/40/20
f 20/40/21 28/39/21 29/41/21 21/42/21
f 21/42/22 29/41/22 30/43/22 22/44/22
f 22/44/23 30/43/23 31/45/23 23/46/23
f 23/46/24 31/45/24 32/47/24 24/48/24
f 24/48/25 32/47/25 25/34/25 17/33/25
f 17/49/26 33/50/26 34/51/26 18/52/26
f 18/52/27 34/51/27 42/53/27 41/54/27 19/55/27
f 19/55/28 41/54/28 42/53/28 43/56/28 20/57/28
f 20/58/29 36/59/29 37/60/29 21/61/29
f 21/61/30 37/60/30 38/62/30 22/63/30
f 22/63/31 38/62/31 39/64/31 23/65/31
f 23/65/32 39/64/32 40/66/32 24/67/32
f 24/67/33 40/66/33 33/50/33 17/49/33
f 25/68/34 44/69/34 45/70/34 26/71/34
f 26/71/35 45/70/35 46/72/35 27/73/35
f 27/73/36 46/72/36 47/74/36 28/75/36
f 28/75/37 47/74/37 48/76/37 29/77/37
f 29/77/38 48/76/38 49/78/38 30/79/38
f 30/79/39 49/78/39 50/80/39 31/81/39
f 31/81/40 50/80/40 51/82/40 32/83/40
f 32/83/41 51/82/41 44/69/41 25/68/41
f 33/50/42 52/84/42 53/85/42 34/51/42
f 34/51/43 53/85/43 54/86/43 35/87/43
f 35/87/44 54/86/44 55/88/44 36/59/44
f 36/59/45 55/88/45 56/89/45 37/60/45
f 37/60/46 56/89/46 57/90/46 38/62/46
f 38/62/47 57/90/47 58/91/47 39/64/47
f 39/64/48 58/91/48 59/92/48 40/66/48
f 40/66/49 59/92/49 52/84/49 33/50/49
f 52/84/50 60/93/50 61/94/50 53/85/50
f 53/85/51 61/94/51 62/95/51 54/86/51
