# Blender 4.4.3
# www.blender.org
mtllib bomb.mtl
o Cube
v -1.000000 -1.000000 1.000000
v -1.000000 1.000000 1.000000
v -1.000000 -1.000000 -1.000000
v -1.000000 1.000000 -1.000000
v 1.000000 -1.000000 1.000000
v 1.000000 1.000000 1.000000
v 1.000000 -1.000000 -1.000000
v 1.000000 1.000000 -1.000000
vn -1.0000 -0.0000 -0.0000
vn -0.0000 -0.0000 -1.0000
vn 1.0000 -0.0000 -0.0000
vn -0.0000 -0.0000 1.0000
vn -0.0000 -1.0000 -0.0000
vn -0.0000 1.0000 -0.0000
vt 0.000000 1.000000
vt 0.000000 0.000000
vt 0.999800 0.000200
vt 1.000000 1.000000
vt 1.000000 0.000000
vt 0.000200 0.000200
s 0
f 1/1/1 2/2/1 4/3/1 3/4/1
f 3/1/2 4/2/2 8/5/2 7/4/2
f 7/2/3 8/5/3 6/4/3 5/1/3
f 5/2/4 6/5/4 2/4/4 1/1/4
f 3/6/5 7/5/5 5/4/5 1/1/5
f 8/5/6 4/4/6 2/1/6 6/2/6
